{"title":"Friends With Kids 2011 DVDSCR XViD-MADiSON","uid":6866284,"size":915503909,"categoryP":"video","categoryS":"movies","magnet":"?xt=urn:btih:8fd78cb732ed66a8b8c0f5d869717a0a9bad3483&amp;dn=Friends+With+Kids+2011+DVDSCR+XViD-MADiSON&amp;tr=udp%3A%2F%2Ftracker.openbittorrent.com%3A80&amp;tr=udp%3A%2F%2Fopen.demonii.com%3A1337&amp;tr=udp%3A%2F%2Ftracker.coppersurfer.tk%3A6969&amp;tr=udp%3A%2F%2Fexodus.desync.com%3A6969","seeders":1,"leechers":0,"uploader":"LegendET","files":2,"time":1323114209,"description":"[center]\n\n[img]http://img231.imageshack.us/img231/103/iotyiy.jpg[/img]\n\nGenre : Comedy\n\nPlot : Friends with Kids revolves around a pair of best friends in their 30s who observe the effect of having kids has taken on the couples they know. To avoid that toll, the best friends resolve to have a child and then date other people.\n\n\nFormat : AVI \nFormat/Info : Audio Video Interleave \nFile size : 873 MiB \nDuration : 1h 44mn \nOverall bit rate : 1 170 Kbps \nWriting application : MEncoder SVN-r33823-4.1.2 \nWriting library : MPlayer \n\nVideo \nID : 0 \nFormat : xvid \nCodec ID : xvid \nDuration : 1h 44mn \nBit rate : 1 052 Kbps \nWidth : 720 pixels \nHeight : 404 pixels \nDisplay aspect ratio : 16:9 \nFrame rate : 23.976 fps \nBits/(Pixel*Frame) : 0.151 \nStream size : 785 MiB (90%) \n\nAudio \nID : 1 \nFormat : MPEG Audio \nFormat version : Version 1 \nFormat profile : Layer 3 \nMode : Joint stereo \nMode extension : MS Stereo \nCodec ID : 55 \nCodec ID/Hint : MP3 \nDuration : 1h 44mn \nBit rate mode : Variable \nBit rate : 105 Kbps \nChannel(s) : 2 channels \nSampling rate : 44.1 KHz \nCompression mode : Lossy \nStream size : 78.4 MiB (9%) \nAlignment : Aligned on interleaves \nInterleave, duration : 26 ms (0.63 video frame) \nInterleave, preload duration : 158 ms \nWriting library : LAME3.98.4\n &lt;a href=&quot;\nhttp://www.imdb.com/title/tt1720616/&quot; rel=&quot;nofollow&quot; target=&quot;_NEW&quot;&gt;\nhttp://www.imdb.com/title/tt1720616/&lt;/a&gt;\n\n\n[img]http://img528.imageshack.us/img528/4552/vlcsnap2011120508h38m20.png[/img]\n[img]http://img521.imageshack.us/img521/998/vlcsnap2011120508h38m08.png[/img]\n[img]http://img231.imageshack.us/img231/3924/vlcsnap2011120508h39m54.png[/img]\n[img]http://img42.imageshack.us/img42/1166/vlcsnap2011120508h39m42.png[/img][/center]","torrent":{"xt":"urn:btih:8fd78cb732ed66a8b8c0f5d869717a0a9bad3483","amp;dn":"Friends+With+Kids+2011+DVDSCR+XViD-MADiSON","amp;tr":["udp%3A%2F%2Ftracker.openbittorrent.com%3A80","udp%3A%2F%2Fopen.demonii.com%3A1337","udp%3A%2F%2Ftracker.coppersurfer.tk%3A6969","udp%3A%2F%2Fexodus.desync.com%3A6969"],"infoHash":"8fd78cb732ed66a8b8c0f5d869717a0a9bad3483","infoHashBuffer":{"type":"Buffer","data":[143,215,140,183,50,237,102,168,184,192,245,216,105,113,122,10,155,173,52,131]},"announce":[],"urlList":[]}}